<svg xmlns="http://www.w3.org/2000/svg" width="200" height="200" viewBox="0 0 200 200">
  <defs>
    <linearGradient id="grad1" x1="0%" y1="0%" x2="100%" y2="100%">
      <stop offset="0%" style="stop-color:#22c55e;stop-opacity:1" />
      <stop offset="100%" style="stop-color:#16a34a;stop-opacity:1" />
    </linearGradient>
  </defs>
  
  <!-- Background circle -->
  <circle cx="100" cy="100" r="95" fill="#0a0a0a" stroke="#1a1a1a" stroke-width="2"/>
  
  <!-- Dollar sign -->
  <text x="100" y="130" font-family="Arial, sans-serif" font-size="100" font-weight="bold" fill="url(#grad1)" text-anchor="middle">$</text>
  
  <!-- Up arrow -->
  <path d="M150 60 L170 85 L158 85 L158 110 L142 110 L142 85 L130 85 Z" fill="#22c55e"/>
  
  <!-- Down arrow (smaller, red) -->
  <path d="M30 110 L42 95 L38 95 L38 80 L46 80 L46 95 L50 95 Z" fill="#ef4444" opacity="0.5"/>
  
  <!-- Chart line -->
  <polyline points="20,150 50,140 80,145 110,120 140,130 170,100" fill="none" stroke="#22c55e" stroke-width="3" stroke-linecap="round" stroke-linejoin="round"/>
  
  <!-- Chart dots -->
  <circle cx="20" cy="150" r="4" fill="#22c55e"/>
  <circle cx="50" cy="140" r="4" fill="#22c55e"/>
  <circle cx="80" cy="145" r="4" fill="#22c55e"/>
  <circle cx="110" cy="120" r="4" fill="#22c55e"/>
  <circle cx="140" cy="130" r="4" fill="#22c55e"/>
  <circle cx="170" cy="100" r="4" fill="#22c55e"/>
</svg>
